# xmcd
#
# Track frame offsets:
#	150
#	19352
#	32400
#	44935
#	61462
#	76652
#	91417
#	113587
#	127952
#	158627
#	169610
#	176702
#	192560
#	209737
#	231905
#	236140
#
# Disc length: 3338
#
# Revision: 3
# Processed by: cddbd v1.5.1PL0 Copyright (c) Steve Scherf et al.
# Submitted via: audiograbber 1.80
# Normalized: r2:DSETVAR1
#
DISCID=db0d0810
DTITLE=Various Artist - Steeped in the Blues Tradition
DYEAR=1900
DGENRE=
TTITLE0=Big Joe Williams - Razor Sharp Blues
TTITLE1=Blind Lemon Jefferson - That Black Snake Moan #2
TTITLE2=Lightnin' Hopkins - Backwater Blues (That Mean Ol' Twister)
TTITLE3=Mississippi Fred McDow - Keep Your Lamps Trimmed And Burning
TTITLE4=Lead Belly - The Bourgeois Blues
TTITLE5=Sonny Terry and Brownie McGhee - Ain't Gonna Study War No More
TTITLE6=Big Bill Broonzy - Ridin' On Down
TTITLE7=Lightnin' Hopkins - See See Rider
TTITLE8=Big Joe Williams with Lightnin', Sonny and Brownie - Blues For Gamblers
TTITLE9=Lead Belly and Josh White - Pretty Flower In Your Backyard
TTITLE10=Big Bill Broonzy - St. Louis Blues
TTITLE11=Mississippi Fred McDow - Good Morning Little Schoolgirl
TTITLE12=Sonny Terrie and Alec Seward - Rock Me Momma
TTITLE13=Lightnin' Hopkins - Big Car Blues
TTITLE14=Lead Belly - Line 'Em
TTITLE15=Big Bill Broonzy - Baby Please Don't Go
EXTD=
EXTT0=
EXTT1=
EXTT2=
EXTT3=
EXTT4=
EXTT5=
EXTT6=
EXTT7=
EXTT8=
EXTT9=
EXTT10=
EXTT11=
EXTT12=
EXTT13=
EXTT14=
EXTT15=
PLAYORDER=
